<?xml version="1.0" encoding="UTF-8"?>
<svg xmlns="http://www.w3.org/2000/svg" viewBox="0 0 809.04 468.66">
    <path d="m314.54,62.53c-37.97,0-69.56,27.23-76.36,63.23,1.46-15.2,7.29-29.11,16.23-40.48h-48.5v104.02c-9-21.26-18.78-28.43-30.23-104.02h-106.92v39.72c.21,0,.42-.02.63-.02,22,0,41.72,9.69,55.17,25.03-13.22-12.87-31.27-20.81-51.17-20.81C32.85,129.21,0,162.06,0,202.59s32.85,73.38,73.38,73.38c15.45,0,29.78-4.79,41.6-12.94h49.83v-85.47c0,28.36,19.07,68.64,33.26,81.41,8.97-5.19,19.38-8.17,30.49-8.17,13.75,0,26.44,4.55,36.64,12.23h36.76v-46.07c4.09.67,8.29,1.03,12.57,1.03,42.93,0,77.73-34.8,77.73-77.73s-34.8-77.73-77.73-77.73Z"></path>
</svg>