<?xml version="1.0" encoding="UTF-8"?>
<svg id="LOGO" xmlns="http://www.w3.org/2000/svg" viewBox="0 0 918.58 818.65">
  <path id="N" fill="white" d="m706.24,296.24l.23-296.24h-290.9v313.56c-21.51-36.26-89.86-185.33-89.86-313.56H0v543.57h290.9v-273.23c0,116.59,77.36,250.02,86.77,250.01.02,0,.06,0,.08,0,16.95-129.29,127.47-229.14,261.39-229.14,3.07,0,6.13.06,9.17.17-142.62,3.49-257.18,120.1-257.18,263.56s118.07,263.72,263.72,263.72,263.72-118.07,263.72-263.72c0-128.06-91.29-234.77-212.34-258.68Z"/>
</svg>